<?xml version="1.0" standalone="no"?>
<!DOCTYPE svg PUBLIC "-//W3C//DTD SVG 20010904//EN"
 "http://www.w3.org/TR/2001/REC-SVG-20010904/DTD/svg10.dtd">
<svg version="1.0" xmlns="http://www.w3.org/2000/svg"
 width="1024.000000pt" height="1024.000000pt" viewBox="0 0 1024.000000 1024.000000"
 preserveAspectRatio="xMidYMid meet">

<g transform="translate(0.000000,1024.000000) scale(0.100000,-0.100000)"
fill="#000000" stroke="none">
<path d="M3146 7735 c-51 -18 -100 -67 -125 -126 l-21 -48 2 -2313 3 -2313 22
-40 c24 -46 54 -75 103 -101 32 -18 67 -19 440 -22 272 -2 417 0 442 8 49 14
94 53 121 104 l22 41 0 1562 c0 859 3 1559 7 1555 3 -4 118 -178 255 -387 534
-815 540 -823 625 -846 27 -7 107 -10 219 -7 l177 3 44 30 c58 41 70 58 415
592 166 258 328 506 360 552 l58 84 3 -984 c2 -1105 6 -1053 -69 -1134 -54
-58 -108 -78 -197 -73 -99 5 -153 40 -202 131 -46 84 -84 124 -130 138 -22 7
-178 9 -437 7 l-401 -3 -38 -31 c-58 -46 -67 -90 -55 -245 38 -465 403 -902
878 -1052 165 -53 233 -62 453 -62 231 0 311 12 484 72 197 68 318 144 466
293 243 243 355 494 390 875 6 69 10 748 10 1831 0 1880 4 1761 -57 1841 -15
20 -50 47 -78 59 l-50 24 -580 0 c-540 0 -583 -2 -620 -19 -45 -20 -91 -69
-143 -150 -19 -31 -70 -110 -112 -176 -101 -157 -283 -442 -433 -680 -66 -104
-130 -205 -142 -223 l-22 -33 -84 128 c-45 70 -196 306 -335 523 -139 217
-274 429 -301 470 -53 81 -112 133 -171 150 -23 6 -241 10 -597 10 -450 -1
-568 -4 -599 -15z m1002 -351 l62 -7 111 -171 c62 -94 136 -207 165 -251 133
-204 500 -778 576 -900 68 -111 87 -127 151 -133 94 -8 140 36 264 248 27 47
71 116 96 153 26 38 47 70 47 72 0 3 59 96 131 207 73 112 183 284 247 383 63
99 138 216 168 260 29 45 58 93 65 108 l12 27 416 0 c229 0 422 -4 429 -8 10
-7 12 -324 9 -1643 -2 -899 -6 -1679 -9 -1734 -3 -55 -12 -113 -18 -130 -7
-16 -12 -39 -11 -50 2 -17 0 -17 -8 -5 -8 11 -11 6 -11 -25 -1 -22 -12 -62
-25 -90 -23 -48 -23 -49 -19 -15 3 30 2 31 -5 10 -5 -14 -6 -35 -4 -47 3 -13
0 -23 -6 -23 -6 0 -11 -6 -11 -13 0 -12 -60 -102 -105 -157 -72 -87 -200 -194
-223 -185 -9 3 -13 3 -9 -1 21 -22 -210 -122 -333 -144 -86 -16 -266 -16 -360
-1 -308 53 -593 269 -730 556 -16 33 -31 70 -35 83 l-6 22 185 0 186 0 87 -88
c67 -68 104 -96 156 -121 142 -66 294 -86 427 -56 65 15 94 20 133 24 5 1 6 5
2 10 -3 5 5 13 17 17 13 4 24 5 25 3 1 -2 13 7 26 20 14 12 30 20 36 17 6 -4
19 -2 28 4 15 9 14 10 -7 5 -21 -5 -19 -1 16 29 23 20 56 58 74 86 18 28 37
47 43 43 5 -3 7 -1 4 4 -6 10 19 73 29 73 3 0 2 -5 -2 -12 -4 -7 -3 -8 5 -4 6
4 9 12 5 17 -3 5 4 41 16 80 17 53 25 68 32 58 7 -10 8 -9 4 5 -4 11 -6 643
-6 1406 l0 1387 -23 34 c-36 54 -82 79 -143 79 -98 0 -140 -32 -220 -165 -64
-106 -241 -381 -534 -830 -126 -193 -252 -389 -418 -652 l-65 -103 -47 0 -48
0 -85 128 c-46 70 -140 213 -209 317 -68 105 -160 243 -204 308 -43 64 -106
160 -139 212 -122 192 -473 711 -496 732 -73 67 -204 55 -256 -23 -16 -26 -18
-68 -18 -593 -1 -311 -2 -575 -4 -586 -1 -11 -2 -564 -2 -1230 0 -665 -1
-1223 -2 -1240 l-2 -30 -202 -3 -203 -2 0 632 c0 348 -3 1305 -7 2126 l-6
1492 365 0 c201 0 393 -3 426 -6z"/>
<path d="M7083 5560 c0 -25 2 -35 4 -22 2 12 2 32 0 45 -2 12 -4 2 -4 -23z"/>
<path d="M7083 5090 c0 -30 2 -43 4 -27 2 15 2 39 0 55 -2 15 -4 2 -4 -28z"/>
<path d="M7063 4680 c0 -25 2 -35 4 -22 2 12 2 32 0 45 -2 12 -4 2 -4 -23z"/>
<path d="M7083 4680 c0 -25 2 -35 4 -22 2 12 2 32 0 45 -2 12 -4 2 -4 -23z"/>
<path d="M7063 4520 c0 -25 2 -35 4 -22 2 12 2 32 0 45 -2 12 -4 2 -4 -23z"/>
<path d="M7083 4480 c0 -47 2 -66 4 -42 2 23 2 61 0 85 -2 23 -4 4 -4 -43z"/>
<path d="M6721 4344 c0 -11 3 -14 6 -6 3 7 2 16 -1 19 -3 4 -6 -2 -5 -13z"/>
<path d="M7083 4200 c0 -25 2 -35 4 -22 2 12 2 32 0 45 -2 12 -4 2 -4 -23z"/>
<path d="M6701 4064 c0 -11 3 -14 6 -6 3 7 2 16 -1 19 -3 4 -6 -2 -5 -13z"/>
<path d="M7050 4021 c0 -11 4 -22 9 -25 4 -3 6 6 3 19 -5 30 -12 33 -12 6z"/>
<path d="M7071 3964 c0 -11 3 -14 6 -6 3 7 2 16 -1 19 -3 4 -6 -2 -5 -13z"/>
<path d="M6681 3960 c0 -8 4 -22 9 -30 12 -18 12 -2 0 25 -6 13 -9 15 -9 5z"/>
<path d="M7062 3910 c0 -19 2 -27 5 -17 2 9 2 25 0 35 -3 9 -5 1 -5 -18z"/>
<path d="M6658 3890 c-5 -33 6 -28 17 8 3 12 2 22 -3 22 -5 0 -12 -14 -14 -30z"/>
<path d="M6983 3745 c-3 -9 -3 -18 -1 -21 3 -3 8 4 11 16 6 23 -1 27 -10 5z"/>
<path d="M7013 3745 c-3 -9 -3 -18 -1 -21 3 -3 8 4 11 16 6 23 -1 27 -10 5z"/>
<path d="M6570 3719 c0 -5 5 -7 10 -4 6 3 10 8 10 11 0 2 -4 4 -10 4 -5 0 -10
-5 -10 -11z"/>
<path d="M6542 3690 c-7 -12 -8 -20 -2 -20 5 0 10 5 10 11 0 5 4 7 10 4 6 -3
7 1 4 9 -8 20 -7 20 -22 -4z"/>
<path d="M6586 3694 c-5 -14 -4 -15 9 -4 17 14 19 20 6 20 -5 0 -12 -7 -15
-16z"/>
<path d="M6885 3590 c-3 -6 -2 -17 2 -25 7 -12 10 -12 20 4 10 15 9 20 -2 25
-8 3 -17 1 -20 -4z"/>
<path d="M6916 3553 c-6 -14 -5 -15 5 -6 7 7 10 15 7 18 -3 3 -9 -2 -12 -12z"/>
<path d="M6750 3419 c0 -5 5 -7 10 -4 6 3 10 8 10 11 0 2 -4 4 -10 4 -5 0 -10
-5 -10 -11z"/>
<path d="M3138 1591 c-77 -7 -114 -29 -141 -84 -35 -69 3 -162 80 -193 27 -12
397 -14 2236 -14 l2204 0 33 23 c53 36 75 72 75 125 0 55 -29 103 -78 130 -30
16 -162 17 -2187 18 -1185 0 -2185 -2 -2222 -5z"/>
</g>
</svg>
