<?xml version="1.0" encoding="UTF-8"?>
<svg version="1.1" viewBox="0 0 1024 1024" width="1024" height="1024" xmlns="http://www.w3.org/2000/svg">
<path transform="translate(0)" d="m0 0h1024v1024h-1024z" fill="#EBEFF1"/>
<path transform="translate(280,248)" d="m0 0h246l4 4 1 6-3 5-2 1-241 1-2 1-1 6-1 34h223l8 16 4 11v4l-173 1-1 203h56l4 3 1 6-3 5-3 2h-98v42h336v-9l4-10 5-6 10-5h88l8 4 7 7 3 8 1 6v62l-3 10-7 8-10 5-5 1h-186l12 36v2h38l6 3 3 5v28l-3 4-4 1h-180l-5-3-1-2v-28l3-5 6-3h37l3-12 8-25-186-1-10-3-7-6-5-10v-397l3-7 5-6z" fill="#2A3239"/>
<path transform="translate(632,121)" d="m0 0h40l4 4 1 3 1 28 11 3 11-18 5-5 5-1 8 3 24 16 3 5-1 6-10 16-2 3 1 5 5 6v3l20-10h8l5 5 10 23 3 8-1 6-7 6-17 8v30l10 3 13 5 3 4 1 5-5 13-9 21-5 4-4 1-13-4-6-3-4 1-8 11 5 9 7 10 1 7-4 6-7 6-16 11-4 2h-7l-5-3-11-16v-2l-14 3v26l-3 6-1 1-39 1-5-3-2-3v-29l-9-1-5-2-2 5-9 12-6 5-5 1-10-5-15-11-6-5-2-7 3-8 10-14-2-5-7-9-10 3-8 3h-7l-6-4-4-8-9-23v-6l3-5 23-9 1-23 1-7-6-2-17-8-4-5v-7l7-16 5-12 5-6h8l11 5 10 4 2-5 4-4-1-5-11-17-1-9 4-5 26-17h9l7 6 8 14 2 3 9-2h4v-31z" fill="#2A3239"/>
<path transform="translate(0,978)" d="m0 0h1024v46h-1024z" fill="#EBEFF1"/>
<path transform="translate(642,171)" d="m0 0h19l15 3 17 7 13 9 16 16 8 13 6 12 4 14 1 5v22l-2 11-5 15-6 12-9 12-5 6-14 11-16 8-14 4-8 1h-20l-15-3-16-6-14-9-12-11-10-13-7-15-5-16-1-7v-19l3-16 6-15 6-11 7-9 13-13 18-11 15-5z" fill="#2A3239"/>
<path transform="translate(0,978)" d="m0 0h1024v46h-35l-1-7v-21h-29l-2-1-1-6-4 1h-25l-2 5h-30l-2-7-2 1v-2h-2l-1 2-21-1-3-1v8h-62l-1-7h-29l-1 7h-29v-7h-3l-2 2-1-2h-18l-2-1-1 2v-2h-2v6l-1 2h-29l-2-4h-12l-15 1-2-5-4 1-22-1-3-1-1 9h-30v-9l-26 1-4-1-2 9h-27l-3-1-1-8-17 1-12-1-2-1-1 10h-30l-2-9-4 1h-25l-1 2-11 1-18-1-3-1-1 7h-31l-2-6-1-1h-16l-12-1-1 8h-31l-2-6h-10l-16-1-2 7h-28l-1-7-9 1-13-1-6 1-2 6h-30l-1-6-4 1h-25l-2 5h-31l-2-5h-28l-2 6 2-1h29l1 4v25h-126z" fill="#BDC2C5"/>
<path transform="translate(284,616)" d="m0 0 351 1v46h-347l-5-5-2-5v-36z" fill="#EBEFF1"/>
<path transform="translate(756,384)" d="m0 0 3 1v168l-3 3-3 1h-331l-5-4-1-7 5-5h303v-142l14-7z" fill="#2B333A"/>
<path transform="translate(713,987)" d="m0 0h26l3 1v7h29l-1-3 2-5h12l17 1 1 7h62v-8l24 1 5-1 2 4v4l30-1 2-5h29l1 6h26l5 1 1 28h-306l-1-27 1-2h29z" fill="#ECF0F2"/>
<path transform="translate(642,171)" d="m0 0h19l15 3 17 7 13 9 16 16 8 13 6 12 4 14 1 5v22l-2 11-5 15-6 12-9 12-5 6-14 11-16 8-14 4-8 1h-20l-15-3-16-6-14-9-12-11-10-13-7-15-5-16-1-7v-19l3-16 6-15 6-11 7-9 13-13 18-11 15-5zm0 17-17 4-15 8-12 11-7 8-8 16-3 9-2 12v11l3 17 5 12 9 13 2 3h2l2 4 10 8 16 8 12 3 7 1h12l12-2 16-6 13-9 11-11 8-13 6-17 1-6v-22l-4-14-8-15-9-11-10-9-17-9-16-4z" fill="#EAEEF0"/>
<path transform="translate(320,322)" d="m0 0h6v219h-26l-1-3v-215z" fill="#E9EDEF"/>
<path transform="translate(227,987)" d="m0 0 22 1 1 7-30 1v28h-94l-1-29-31 1 1-7h30l1 6h31l1-6h30l1 6h30l1-6z" fill="#ECF0F2"/>
<path transform="translate(698,587)" d="m0 0h3l2 7 9 3 5 4 4-2h3v-5h9v12l-10 1 2 13-1 4 9 2v14h-8l-2-3-1-5h-6l-2 3 8 8-1 5-5 6-4 2h-14l-1 3h-10v-4l-14-1v8h-9v-16h14l1-6 2-2-6-8-3-8-7-1v-10l8-1 4-7 8-7 6-2 1-6z" fill="#E9EDEF"/>
<path transform="translate(372,350)" d="m0 0h172l5 4 1 5-3 5-3 2h-173l-4-4-1-6 3-5z" fill="#2C343B"/>
<path transform="translate(371,418)" d="m0 0h179l3 3 1 5-3 5-3 2h-177l-4-4v-7z" fill="#2A3239"/>
<path transform="translate(343,322)" d="m0 0h166l2 3 2-1 3 9v4h-172l-2-6v-8z" fill="#3C434A"/>
<path transform="translate(489,680)" d="m0 0h45l7 24 4 13-1 1h-65l1-8 8-26z" fill="#3D444B"/>
<path transform="translate(557,506)" d="m0 0h126l4 3 1 5-3 6-3 1h-123l-5-3-1-1v-7z" fill="#2B333A"/>
<path transform="translate(534,474)" d="m0 0h112l4 4v6l-5 5h-110l-5-4v-7z" fill="#2B333A"/>
<path transform="translate(656,995)" d="m0 0h27v29h-60v-27l1-1z" fill="#BEC3C6"/>
<path transform="translate(402,474)" d="m0 0h107l5 5-1 7-4 3h-106l-5-5v-6z" fill="#2B333A"/>
<path transform="translate(403,996)" d="m0 0h62l-1 3v-2l-5 2-3 1 1 9 1 1 8 1v13h-63z" fill="#BEC3C6"/>
<path transform="translate(432,734)" d="m0 0h161v8h-161z" fill="#3D444B"/>
<path transform="translate(17,824)" d="m0 0 8 1 5 1 2 6 6 1v1l23 2 2-11 28 2 3 1 1 4 3 2 14 1 2 1h10l3-9 26 1 4 1 2 5v3h25v1l-94 1h-27l-63-1v-10l6-2z" fill="#BEC3C6"/>
<path transform="translate(989,822)" d="m0 0h2v2h7l4 1h12l5-1 1 9h4v5h-177v-1h17v-9h30l1 9h30l1-10h27l2 1 1-2 2 9v1h17l4-2 6-1 3-1z" fill="#BEC3C6"/>
<path transform="translate(428,278)" d="m0 0h68l4 4v7l-4 4h-69l-5-5v-6l2-3z" fill="#2B333A"/>
<path transform="translate(470,506)" d="m0 0h63l5 3 2 5-3 6-3 1h-64l-5-4v-7l2-3z" fill="#2B333A"/>
<path transform="translate(695,603)" d="m0 0h8l6 4 6 8v9l-1 1h-10v15h7l1 4-4 4-5 1h-8l-6-4 2-2 2-7-8-7-3-5v-10l3-6 6-4z" fill="#2B333A"/>
<path transform="translate(371,506)" d="m0 0h60l5 3 1 7-5 5h-59l-3-1-3-6 2-6z" fill="#2B333A"/>
<path transform="translate(371,390)" d="m0 0h59l4 4 1 6-4 5h-61l-3-4v-7z" fill="#2A3239"/>
<path transform="translate(488,632)" d="m0 0h50l5 4 1 7-4 5h-56l-4-4v-7l3-4z" fill="#2B333A"/>
<path transform="translate(96,995)" d="m0 0h29l1 4v25h-31l-1-5v-23z" fill="#BEC3C6"/>
<path transform="translate(282,323)" d="m0 0h3l1 4v214l-2 1-3-1v-123z" fill="#3D444B"/>
<path transform="translate(62,995)" d="m0 0h31l1 1 1 28h-32z" fill="#ECF0F2"/>
<path transform="translate(934,995)" d="m0 0h22l1 1v28h-31v-28z" fill="#BEC3C6"/>
<path transform="translate(870,995)" d="m0 0h24l1 3v26h-31v-28z" fill="#BEC3C6"/>
<path transform="translate(168,995)" d="m0 0h20l1 5v24h-31l-1-27 1-1z" fill="#BEC3C6"/>
<path transform="translate(604,226)" d="m0 0 22 1v8h-13v48h13l1 1v6l-1 2h-22l-1-2v-59z" fill="#E7EBED"/>
<path transform="translate(792,995)" d="m0 0h9l1 5v24h-31v-28z" fill="#BEC3C6"/>
<path transform="translate(503,995)" d="m0 0 26 1v28h-31v-28z" fill="#BEC3C6"/>
<path transform="translate(0,996)" d="m0 0h30l1 2v26h-31z" fill="#ECF0F2"/>
<path transform="translate(354,995)" d="m0 0h16l1 29h-31v-28z" fill="#BEC3C6"/>
<path transform="translate(224,995)" d="m0 0h26v29h-30v-28z" fill="#BEC3C6"/>
<path transform="translate(679,232)" d="m0 0h20l3 1v24l-1 2-3 1-15 1-3 5-2 7 12 1 1 8-3 1h-18l-1-1v-16l4-10 4-4 5-1h10v-11h-13l-1-7z" fill="#E6EAEC"/>
<path transform="translate(728,995)" d="m0 0h12l2 5v24h-29v-25l2-3z" fill="#BEC3C6"/>
<path transform="translate(562,996)" d="m0 0h30v4l-7 1v6l7 1v16h-31v-25z" fill="#BEC3C6"/>
<path transform="translate(279,996)" d="m0 0h28v28h-28l-1-27z" fill="#BEC3C6"/>
<path transform="translate(460,445)" d="m0 0h10l6 2 3 3v6l-5 5h-43l-4-4-1-7 4-4z" fill="#2B3239"/>
<path transform="translate(370,446)" d="m0 0h38l5 5-1 7-4 3h-38l-3-3-1-7z" fill="#2A3239"/>
<path transform="translate(738,392)" d="m0 0 5 2v147l-2 1-3-1z" fill="#3D444B"/>
<path transform="translate(190,828)" d="m0 0h22l7 1 2 5v3h28l1-6 2-3 23 1 3 2 2 7-6 1-89-1 3-1 1-8z" fill="#BEC3C6"/>
<path transform="translate(356,278)" d="m0 0h25l4 4v7l-4 4h-24l-4-2-1-2v-7z" fill="#2A3239"/>
<path transform="translate(436,828)" d="m0 0 28 1 2 1 1 3 10-1h20l2 6h-65l1-9z" fill="#BEC3C6"/>
<path transform="translate(681,828)" d="m0 0 2 1 1 5 18-2h11l1 5h13v1h-75l2-8 1-1z" fill="#BEC3C6"/>
<path transform="translate(803,829)" d="m0 0h29l2 6v3h-49v-1h17l-1-3z" fill="#BEC3C6"/>
<path transform="translate(372,829)" d="m0 0h28l3 3 1 6h-34l1-8z" fill="#BEC3C6"/>
<path transform="translate(743,828)" d="m0 0 27 1 1 1v7l4 1h-36l2-1 1-7z" fill="#BEC3C6"/>
<path transform="translate(644,369)" d="m0 0h16v15l-1 1h-16v-15z" fill="#3D444B"/>
<path transform="translate(371,469)" d="m0 0h6l4 3v16l-3 3-5 1-4-2-1-2v-16z" fill="#2B333A"/>
<path transform="translate(711,154)" d="m0 0 5 3 9 7-2 4-6 8-5-2-8-6 1-5z" fill="#3D444B"/>
<path transform="translate(584,347)" d="m0 0 6 1 2 4 6 2 1 4-7 10-5-2-10-8z" fill="#3D444B"/>
<path transform="translate(308,829)" d="m0 0 30 1 2 8h-34z" fill="#BEC3C6"/>
<path transform="translate(752,291)" d="m0 0 8 1 6 2-1 7-5 10-10-3-3-1 1-6z" fill="#3D444B"/>
<path transform="translate(617,829)" d="m0 0 5 1 2 8h-32v-7l2-1z" fill="#BEC3C6"/>
<path transform="translate(591,154)" d="m0 0 4 5 5 6-1 3-9 6-4 1-8-11 5-5z" fill="#3D444B"/>
<path transform="translate(644,137)" d="m0 0h15l1 5-1 11h-15z" fill="#3D444B"/>
<path transform="translate(530,830)" d="m0 0h22l8 1 1 1v6h-32v-6z" fill="#BEC3C6"/>
<path transform="translate(544,206)" d="m0 0 13 7-1 5-5 9-6-1-7-4 3-9z" fill="#3D444B"/>
<path transform="translate(756,207)" d="m0 0 3 1 6 13v2l-13 5-6-12v-4l7-3z" fill="#3D444B"/>
<path transform="translate(546,292)" d="m0 0h4l6 12v3l-13 5-7-17z" fill="#3D444B"/>
<path transform="translate(716,347)" d="m0 0 5 5 3 4-1 4-9 7-4-2-5-8 2-4z" fill="#3D444B"/>
<path transform="translate(282,556)" d="m0 0 4 1v42h-5v-42z" fill="#3D444B"/>
<path transform="translate(638,246)" d="m0 0h20l2 2v6l-2 1h-16l-5-1v-7z" fill="#E4E8EA"/>
<path transform="translate(1013,988)" d="m0 0h5l1 7h-30v-6z" fill="#ECF0F2"/>
<path transform="translate(637,274)" d="m0 0h22l1 7-1 1h-22z" fill="#E9EEF0"/>
<path transform="translate(61,988)" d="m0 0h1v7l-14 1h-16l-1-1v-6h29z" fill="#ECF0F2"/>
<path transform="translate(399,278)" d="m0 0 7 1 3 3 1 4-3 5-3 2-7-1-3-4 1-7z" fill="#2C343B"/>
<path transform="translate(300,278)" d="m0 0 7 1 3 7-3 5-2 2h-6l-4-3-1-5 3-6z" fill="#2C343B"/>
<path transform="translate(328,278)" d="m0 0 6 1 3 2 1 6-2 4-4 2-6-1-3-3v-7z" fill="#2C343B"/>
<path transform="translate(1020,996)" d="m0 0 4 1v27h-4l-1-26z" fill="#ECF0F2"/>
<path transform="translate(716,631)" d="m0 0h6l3 9-5 2-7-6z" fill="#343C43"/>
<path transform="translate(523 1e3)" d="m0 0 5 2v4l-5 1-3-2 1-4z" fill="#ECF0F2"/>
</svg>
